<svg width="50" height="48" viewBox="0 0 50 48" fill="none" xmlns="http://www.w3.org/2000/svg">
<g id="Icon">
<path id="Combined Shape" fill-rule="evenodd" clip-rule="evenodd" d="M43.2572 23.2977C43.2542 24.307 42.4177 25.1244 41.3849 25.1273L38.86 25.1264L38.9499 26.133C40.2604 26.3166 41.197 27.4145 41.197 28.7864V37.9361C42.2298 37.939 43.0663 38.7564 43.0693 39.7656V41.5961C43.0663 42.6053 42.2298 43.4228 41.197 43.4256H40.2604V46.1704C40.2574 47.1797 39.4209 47.9971 38.3881 48H34.6426C33.6098 47.9971 32.7732 47.1797 32.7703 46.1704V43.4256H10.299V46.1704C10.2961 47.1797 9.45954 47.9971 8.42672 48H4.68121C3.6484 47.9971 2.81187 47.1797 2.80891 46.1704V43.4248H1.8723C0.839489 43.4219 0.00296221 42.6044 0 41.5952V39.7656C0.00296221 38.7564 0.839489 37.939 1.8723 37.9361V28.7864C1.8723 27.5058 2.80891 26.4079 4.11943 26.133L4.20932 25.1264H1.8723C0.839489 25.1235 0.00296221 24.3061 0 23.2969V20.5521C0.00296451 19.5425 0.840037 18.7249 1.8732 18.7225H4.96255L5.52074 13.8732C5.7077 12.5012 6.92564 11.4033 8.32965 11.4033H34.9248C36.4223 11.4033 37.5423 12.5012 37.7337 13.8732L38.2955 18.7225H41.3849C42.4177 18.7254 43.2542 19.5428 43.2572 20.5521V23.2977ZM41.3849 20.552H38.5769L38.8573 23.2968H41.3849V20.552ZM8.42672 13.2329H35.0183C35.4866 13.2329 35.8614 13.5991 35.9549 14.0559L37.2654 26.0416H36.1419L35.1154 14.9711C35.1154 14.5135 34.6471 14.1481 34.1788 14.1481H9.26984C8.80154 14.1481 8.42762 14.5144 8.33324 14.972L7.30316 26.039H6.1796L7.49102 14.0568C7.5845 13.5991 7.95932 13.2329 8.42672 13.2329ZM9.17636 26.0416H34.2687L33.333 15.9776H10.1121L9.17636 26.0416ZM2.06017 23.2968V20.552H4.86907L4.58863 23.2968H2.06017ZM4.86906 46.1704H8.61457V43.4256H4.86906V46.1704ZM38.576 46.1704H34.8304V43.4256H38.576V46.1704ZM2.06017 41.5961H41.3849V39.7656H2.06017V41.5961ZM39.5126 28.7864V37.936H3.93246V28.7864C3.93246 28.2375 4.30729 27.8712 4.86907 27.8712H38.576C39.1377 27.8721 39.5126 28.2375 39.5126 28.7864ZM22.6591 34.276V31.5312C22.6591 30.9823 22.2843 30.616 21.7225 30.616C21.1607 30.616 20.7859 30.9823 20.7859 31.5312V34.276C20.7859 34.825 21.1607 35.1913 21.7225 35.1913C22.2843 35.1913 22.6591 34.825 22.6591 34.276ZM18.9136 31.5312V34.276C18.9136 34.825 18.5388 35.1913 17.977 35.1913C17.4152 35.1913 17.0404 34.825 17.0404 34.276V31.5312C17.0404 30.9823 17.4152 30.616 17.977 30.616C18.5388 30.616 18.9136 30.9823 18.9136 31.5312ZM26.4037 34.276V31.5312C26.4037 30.9823 26.0289 30.616 25.4671 30.616C24.9053 30.616 24.5305 30.9823 24.5305 31.5312V34.276C24.5305 34.825 24.9053 35.1913 25.4671 35.1913C26.0289 35.1913 26.4037 34.825 26.4037 34.276Z" fill="white"/>
<path id="Combined Shape_2" fill-rule="evenodd" clip-rule="evenodd" d="M5.80566 32.9041C5.80566 31.1658 7.30405 29.7017 9.08287 29.7017C10.8617 29.7017 12.3601 31.1658 12.3601 32.9041C12.3601 34.6423 10.8617 36.1065 9.08287 36.1065C7.30405 36.1065 5.80566 34.6423 5.80566 32.9041ZM7.67886 32.9041C7.67886 33.6618 8.30746 34.276 9.08287 34.276C9.85069 34.2584 10.4688 33.6544 10.4869 32.9041C10.4869 32.1464 9.85828 31.5321 9.08287 31.5321C8.30746 31.5321 7.67886 32.1464 7.67886 32.9041Z" fill="white"/>
<path id="Combined Shape_3" fill-rule="evenodd" clip-rule="evenodd" d="M31.0859 32.9041C31.0859 31.1658 32.5843 29.7017 34.3631 29.7017C36.142 29.7017 37.6404 31.1658 37.6404 32.9041C37.6404 34.6423 36.142 36.1065 34.3631 36.1065C32.5843 36.1065 31.0859 34.6423 31.0859 32.9041ZM32.96 32.9035C32.9597 33.6611 33.5878 34.2755 34.3631 34.276C35.1313 34.2589 35.75 33.6547 35.768 32.9041C35.768 32.1465 35.1396 31.5323 34.3643 31.5321C33.589 31.5319 32.9604 32.1459 32.96 32.9035Z" fill="white"/>
<path id="Path" d="M37.4444 0.397877C40.0682 3.64345 42.7764 3.87751 46.108 1.12733C47.0403 0.35783 48.3394 1.48913 47.6779 2.49435C45.5002 5.80362 46.0386 7.9483 49.4024 9.55614C50.3644 10.016 50.1076 11.4301 49.0434 11.5332C48.834 11.5534 48.6314 11.575 48.4355 11.5978L47.8679 11.67L47.599 11.709L47.0905 11.7928C44.0746 12.3337 43.2613 13.3201 43.9747 14.8274C44.2219 15.3497 43.9923 15.9705 43.4619 16.2139C42.9315 16.4573 42.3011 16.2313 42.0539 15.709C40.6746 12.7947 42.1908 10.8414 45.98 9.91836L46.1033 9.88831L46.0877 9.87543C44.5345 8.4568 43.9692 6.69688 44.4071 4.68354L44.4291 4.58792L44.3899 4.60501C42.1335 5.48594 39.9649 5.21673 37.9726 3.80185L37.8831 3.73652L37.8803 3.79903C37.6848 6.44146 36.2307 8.13133 33.5475 8.64836L33.3002 8.69213C32.7228 8.78547 32.1778 8.40016 32.083 7.83153C31.9882 7.26289 32.3795 6.72626 32.957 6.63292C35.3998 6.23805 36.2478 4.62935 35.5755 1.24819C35.3624 0.176198 36.7535 -0.45674 37.4444 0.397877Z" fill="white"/>
</g>
</svg>
