<svg width="50" height="50" viewBox="0 0 50 50" fill="none" xmlns="http://www.w3.org/2000/svg">
<g id="Frame">
<g id="Group">
<path id="Vector" d="M46.5065 21.0998L42.5753 18.8529C42.5443 18.8353 42.5121 18.8198 42.479 18.8066L40.4917 13.2423C39.4994 10.4619 36.8486 8.59375 33.8955 8.59375H16.1045C13.1514 8.59375 10.5006 10.4619 9.5084 13.2422L7.521 18.8067C7.48788 18.8199 7.45571 18.8354 7.42471 18.853L3.49326 21.1C2.30234 21.7806 1.5625 23.055 1.5625 24.4258V31.5937C1.5625 32.0694 1.63896 32.5411 1.79004 32.9968C1.81299 33.0656 1.8373 33.1334 1.8625 33.1975C2.00882 33.5756 2.20658 33.9317 2.4502 34.2558C2.8585 34.8004 3.35352 35.2656 3.90635 35.6421V37.9834C3.90635 39.7295 5.21269 41.1915 6.93818 41.3831C7.06582 41.3984 7.19736 41.4062 7.3291 41.4062H9.8584C9.99014 41.4062 10.1217 41.3984 10.2425 41.3839C11.9749 41.1915 13.2812 39.7295 13.2812 37.9834V36.7188H36.7188V37.9834C36.7188 39.7295 38.0251 41.1915 39.7506 41.3831C39.8783 41.3983 40.0099 41.4062 40.1416 41.4062H42.6709C42.8026 41.4062 42.9342 41.3983 43.055 41.3838C44.7874 41.1915 46.0938 39.7295 46.0938 37.9834V35.645C46.6502 35.2647 47.1459 34.7951 47.5489 34.257C47.793 33.9324 47.9911 33.5757 48.1378 33.197C48.3362 32.6858 48.4378 32.1421 48.4375 31.5937V24.4258C48.4375 23.055 47.6977 21.7806 46.5065 21.0998ZM10.98 13.7675C11.7508 11.6074 13.8102 10.1562 16.1045 10.1562H23.7359L22.9547 11.7188H21.0938C20.8865 11.7188 20.6878 11.8011 20.5413 11.9476C20.3948 12.0941 20.3125 12.2928 20.3125 12.5C20.3125 12.7072 20.3948 12.9059 20.5413 13.0524C20.6878 13.1989 20.8865 13.2812 21.0938 13.2812H23.4335L23.4368 13.2814L23.4396 13.2812H27.3438C27.551 13.2812 27.7497 13.1989 27.8962 13.0524C28.0427 12.9059 28.125 12.7072 28.125 12.5C28.125 12.2928 28.0427 12.0941 27.8962 11.9476C27.7497 11.8011 27.551 11.7188 27.3438 11.7188H24.7016L25.4828 10.1562H33.8955C36.1898 10.1562 38.2493 11.6074 39.0202 13.7676L40.7996 18.75H21.8183C21.4379 16.1033 19.1563 14.0625 16.4062 14.0625C13.6562 14.0625 11.3745 16.1033 10.9942 18.75H9.20039L10.98 13.7675ZM20.2339 18.75H12.5786C12.9415 16.9692 14.5198 15.625 16.4062 15.625C18.2927 15.625 19.871 16.9692 20.2339 18.75ZM8.02002 20.3125H41.9799L42.965 20.8755L38.0179 22.112C37.465 22.2494 36.9504 22.5103 36.5128 22.8752C36.0753 23.2401 35.7261 23.6994 35.4916 24.2187H14.5085C14.274 23.6994 13.9249 23.2401 13.4874 22.8753C13.0498 22.5104 12.5353 22.2494 11.9824 22.112L7.03496 20.8754L8.02002 20.3125ZM3.125 24.4258C3.125 23.6142 3.56318 22.8597 4.26826 22.4567L5.07432 21.996L11.6037 23.628C11.9867 23.7233 12.3372 23.9195 12.6188 24.1961C12.9004 24.4727 13.1027 24.8197 13.2048 25.201C13.2078 25.2125 13.2104 25.2241 13.214 25.2355C13.2576 25.4096 13.2812 25.5911 13.2812 25.7773C13.2815 25.8805 13.2613 25.9827 13.2218 26.0779C13.1822 26.1732 13.1242 26.2597 13.0511 26.3324C12.9784 26.4056 12.8919 26.4636 12.7966 26.5031C12.7014 26.5426 12.5992 26.5628 12.4961 26.5625H3.125V24.4258ZM3.18984 32.1898C3.14752 31.9939 3.12578 31.7942 3.125 31.5937V30.629L7.89727 31.1066C8.08834 31.1251 8.26566 31.2142 8.39448 31.3565C8.52331 31.4988 8.59437 31.6841 8.59375 31.8761C8.59375 32.3025 8.24805 32.6495 7.82324 32.6495C7.79902 32.6495 7.77031 32.6479 7.74385 32.6456L3.18984 32.1898ZM11.7188 37.9834C11.7188 38.6049 11.4135 39.1586 10.9375 39.4973V39.0625C10.9375 38.8553 10.8552 38.6566 10.7087 38.5101C10.5622 38.3636 10.3635 38.2812 10.1562 38.2812C9.94905 38.2812 9.75034 38.3636 9.60382 38.5101C9.45731 38.6566 9.375 38.8553 9.375 39.0625V39.8438H7.8125V39.0625C7.8125 38.8553 7.73019 38.6566 7.58368 38.5101C7.43716 38.3636 7.23845 38.2812 7.03125 38.2812C6.82405 38.2812 6.62534 38.3636 6.47882 38.5101C6.33231 38.6566 6.25 38.8553 6.25 39.0625V39.4985C6.00823 39.3268 5.81113 39.0996 5.67521 38.836C5.53928 38.5724 5.46849 38.2801 5.46875 37.9835V36.4107C6.079 36.6106 6.72158 36.7188 7.375 36.7188H11.7188V37.9834ZM33.1927 30.6254L32.3199 34.5526C32.2827 34.7242 32.1876 34.8778 32.0506 34.9877C31.9136 35.0976 31.7431 35.1571 31.5675 35.1562H18.4325C18.2569 35.1571 18.0864 35.0976 17.9494 34.9877C17.8124 34.8778 17.7173 34.7242 17.6801 34.5526L16.8073 30.6254C16.7563 30.3959 16.8114 30.1593 16.9585 29.976C17.1056 29.7927 17.3247 29.6875 17.5598 29.6875H32.4402C32.6753 29.6875 32.8944 29.7927 33.0415 29.976C33.1886 30.1593 33.2437 30.396 33.1927 30.6254ZM44.5312 37.9834C44.5312 38.6049 44.226 39.1586 43.75 39.4973V39.0625C43.75 38.8553 43.6677 38.6566 43.5212 38.5101C43.3747 38.3636 43.1759 38.2812 42.9688 38.2812C42.7616 38.2812 42.5628 38.3636 42.4163 38.5101C42.2698 38.6566 42.1875 38.8553 42.1875 39.0625V39.8438H40.625V39.0625C40.625 38.8553 40.5427 38.6566 40.3962 38.5101C40.2497 38.3636 40.0509 38.2812 39.8438 38.2812C39.6366 38.2812 39.4378 38.3636 39.2913 38.5101C39.1448 38.6566 39.0625 38.8553 39.0625 39.0625V39.4985C38.8207 39.3268 38.6236 39.0996 38.4877 38.836C38.3518 38.5724 38.281 38.2801 38.2812 37.9835V36.7188H42.625C43.2709 36.7188 43.9166 36.6126 44.5312 36.4127V37.9834ZM46.875 31.5937C46.875 31.7952 46.8533 31.9943 46.8119 32.1897L42.2622 32.645C42.2297 32.6479 42.201 32.6495 42.1768 32.6495C41.7519 32.6495 41.4062 32.3025 41.4062 31.8761C41.4057 31.684 41.4768 31.4987 41.6057 31.3563C41.7346 31.214 41.9121 31.1249 42.1032 31.1065L46.875 30.6289V31.5937ZM46.875 29.0587L41.948 29.5518C41.3708 29.6075 40.8352 29.8766 40.446 30.3065C40.0567 30.7364 39.842 31.2961 39.8438 31.876C39.8438 33.164 40.8903 34.2119 42.1768 34.2119C42.2497 34.2119 42.3246 34.2083 42.4117 34.2002L45.8213 33.859C45.4844 34.1854 45.0985 34.4617 44.6789 34.6713C44.0409 34.9894 43.3379 35.1554 42.625 35.1562H33.7683C33.799 35.0696 33.8247 34.9812 33.8452 34.8916L34.718 30.9644C34.8724 30.2699 34.7055 29.5532 34.2603 28.9982C33.815 28.4433 33.1518 28.125 32.4402 28.125H17.5598C16.8482 28.125 16.1849 28.4434 15.7397 28.9982C15.2946 29.5531 15.1277 30.2698 15.282 30.9644L16.1548 34.8916C16.175 34.9825 16.202 35.0702 16.2317 35.1562H7.375C6.17969 35.1562 5.03008 34.6806 4.17979 33.8591L7.59424 34.2008C7.67539 34.2083 7.75029 34.2119 7.82324 34.2119C9.10967 34.2119 10.1562 33.1641 10.1562 31.876C10.158 31.2961 9.94334 30.7365 9.55422 30.3066C9.16511 29.8768 8.62958 29.6076 8.05244 29.5518L3.125 29.0587V28.125H12.4961C13.1229 28.125 13.7125 27.8807 14.1559 27.4373C14.3741 27.2203 14.5473 26.9623 14.6653 26.678C14.7834 26.3938 14.844 26.089 14.8437 25.7812H35.1563C35.156 26.089 35.2166 26.3937 35.3346 26.6779C35.4527 26.9621 35.6258 27.2202 35.844 27.4371C36.2876 27.8807 36.8771 28.125 37.5039 28.125H46.875V29.0587ZM46.875 26.5625H37.5039C37.4008 26.5627 37.2986 26.5425 37.2033 26.503C37.108 26.4634 37.0215 26.4054 36.9488 26.3322C36.8757 26.2595 36.8177 26.1731 36.7782 26.0778C36.7387 25.9826 36.7185 25.8805 36.7188 25.7773C36.7188 25.5911 36.7423 25.4096 36.786 25.2355C36.7896 25.2242 36.7922 25.2125 36.7952 25.201C36.8973 24.8197 37.0997 24.4727 37.3813 24.1961C37.6629 23.9194 38.0134 23.7233 38.3965 23.6279L44.9256 21.9961L45.7314 22.4566C46.4368 22.8597 46.875 23.6143 46.875 24.4258V26.5625Z" fill="#252C32"/>
<path id="Vector_2" d="M30.4688 30.4688H19.5312C19.324 30.4688 19.1253 30.5511 18.9788 30.6976C18.8323 30.8441 18.75 31.0428 18.75 31.25C18.75 31.4572 18.8323 31.6559 18.9788 31.8024C19.1253 31.9489 19.324 32.0312 19.5312 32.0312H30.4688C30.676 32.0312 30.8747 31.9489 31.0212 31.8024C31.1677 31.6559 31.25 31.4572 31.25 31.25C31.25 31.0428 31.1677 30.8441 31.0212 30.6976C30.8747 30.5511 30.676 30.4688 30.4688 30.4688ZM29.6875 32.8125H20.3125C20.1053 32.8125 19.9066 32.8948 19.7601 33.0413C19.6136 33.1878 19.5312 33.3865 19.5312 33.5938C19.5312 33.801 19.6136 33.9997 19.7601 34.1462C19.9066 34.2927 20.1053 34.375 20.3125 34.375H29.6875C29.8947 34.375 30.0934 34.2927 30.2399 34.1462C30.3864 33.9997 30.4688 33.801 30.4688 33.5938C30.4688 33.3865 30.3864 33.1878 30.2399 33.0413C30.0934 32.8948 29.8947 32.8125 29.6875 32.8125Z" fill="#252C32"/>
<path id="Vector_3" d="M5.46875 25.7812C6.3317 25.7812 7.03125 25.0817 7.03125 24.2188C7.03125 23.3558 6.3317 22.6562 5.46875 22.6562C4.60581 22.6562 3.90625 23.3558 3.90625 24.2188C3.90625 25.0817 4.60581 25.7812 5.46875 25.7812Z" fill="#252C32"/>
<path id="Vector_4" d="M8.59619 24.2188H8.59522C8.16377 24.2188 7.81445 24.5686 7.81445 25C7.81445 25.4314 8.16465 25.7812 8.59619 25.7812C8.80339 25.7812 9.00211 25.6989 9.14862 25.5524C9.29513 25.4059 9.37744 25.2072 9.37744 25C9.37744 24.7928 9.29513 24.5941 9.14862 24.4476C9.00211 24.3011 8.80339 24.2188 8.59619 24.2188ZM10.9399 24.2188H10.939C10.5075 24.2188 10.1582 24.5686 10.1582 25C10.1582 25.4314 10.5084 25.7812 10.9399 25.7812C11.1471 25.7812 11.3459 25.6989 11.4924 25.5524C11.6389 25.4059 11.7212 25.2072 11.7212 25C11.7212 24.7928 11.6389 24.5941 11.4924 24.4476C11.3459 24.3011 11.1471 24.2188 10.9399 24.2188Z" fill="#252C32"/>
<path id="Vector_5" d="M44.5312 25.7812C45.3942 25.7812 46.0938 25.0817 46.0938 24.2188C46.0938 23.3558 45.3942 22.6562 44.5312 22.6562C43.6683 22.6562 42.9688 23.3558 42.9688 24.2188C42.9688 25.0817 43.6683 25.7812 44.5312 25.7812Z" fill="#252C32"/>
<path id="Vector_6" d="M41.4087 24.2188H41.4077C40.9763 24.2188 40.627 24.5686 40.627 25C40.627 25.4314 40.9771 25.7812 41.4087 25.7812C41.6159 25.7812 41.8146 25.6989 41.9611 25.5524C42.1076 25.4059 42.1899 25.2072 42.1899 25C42.1899 24.7928 42.1076 24.5941 41.9611 24.4476C41.8146 24.3011 41.6159 24.2188 41.4087 24.2188ZM39.0649 24.2188H39.064C38.6325 24.2188 38.2832 24.5686 38.2832 25C38.2832 25.4314 38.6334 25.7812 39.0649 25.7812C39.2721 25.7812 39.4709 25.6989 39.6174 25.5524C39.7639 25.4059 39.8462 25.2072 39.8462 25C39.8462 24.7928 39.7639 24.5941 39.6174 24.4476C39.4709 24.3011 39.2721 24.2188 39.0649 24.2188Z" fill="#252C32"/>
</g>
</g>
</svg>
