<svg width="50" height="50" viewBox="0 0 50 50" fill="none" xmlns="http://www.w3.org/2000/svg">
<g id="Frame">
<g id="Group">
<path id="Vector" d="M40.7611 38.9354C40.3989 38.5472 39.889 38.3583 39.3609 38.4168L38.6279 38.4982L36.9464 18.3186L36.9387 18.2301C36.8224 16.8317 35.9019 15.6006 34.596 15.0945C34.1695 14.928 33.7156 14.8429 33.2578 14.8438H29.6875V12.5H30.6899C31.2501 12.5015 31.7924 12.3035 32.2199 11.9415C32.6473 11.5794 32.9318 11.077 33.0224 10.5242L34.0571 4.31592C34.1139 3.97718 34.096 3.63014 34.0048 3.29901C33.9136 2.96788 33.7513 2.66064 33.5291 2.39873C33.3072 2.13647 33.0308 1.92577 32.7192 1.78133C32.4075 1.6369 32.0681 1.56222 31.7246 1.5625H18.2754C17.9319 1.56223 17.5925 1.63691 17.2808 1.78132C16.9692 1.92573 16.6928 2.1364 16.471 2.39863C16.2488 2.66055 16.0864 2.96779 15.9952 3.29891C15.904 3.63004 15.8861 3.97708 15.9428 4.31582L16.9776 10.5241C17.0682 11.0769 17.3527 11.5793 17.7801 11.9414C18.2075 12.3035 18.7499 12.5015 19.31 12.5H20.3125V14.8438H16.7422C14.8366 14.8438 13.2198 16.3311 13.0612 18.2301L11.372 38.4983L10.639 38.4169C10.111 38.3579 9.60105 38.5474 9.23884 38.9355C8.87664 39.3237 8.72341 39.8459 8.81824 40.3683L9.80398 45.7896C10.083 47.3239 11.4174 48.4375 12.9768 48.4375H37.0231C38.5826 48.4375 39.917 47.3239 40.1959 45.7896L41.1816 40.3682C41.2765 39.8458 41.1233 39.3236 40.7611 38.9354ZM37.0743 38.671L34.5146 38.9555C33.6867 39.0485 32.9147 39.4195 32.3248 40.0078C32.1296 40.2041 31.8974 40.3597 31.6416 40.4657C31.3858 40.5716 31.1116 40.6258 30.8347 40.625H19.1652C18.8884 40.6258 18.6141 40.5716 18.3584 40.4657C18.1026 40.3597 17.8704 40.2041 17.6752 40.0078C17.3268 39.6605 16.9123 39.3866 16.4562 39.2023L17.9851 37.6734L18.5374 38.2257C18.6839 38.3722 18.8826 38.4544 19.0898 38.4544C19.297 38.4544 19.4957 38.3722 19.6423 38.2257L22.7117 35.1562H34.375C34.5822 35.1562 34.7809 35.0739 34.9274 34.9274C35.0739 34.7809 35.1562 34.5822 35.1562 34.375V28.125C35.1562 27.9178 35.0739 27.7191 34.9274 27.5726C34.7809 27.4261 34.5822 27.3438 34.375 27.3438H29.7121C29.6777 27.2828 29.6352 27.2268 29.5859 27.1771L29.0337 26.6249L29.8772 25.7813H33.5937C33.8009 25.7813 33.9996 25.6989 34.1462 25.5524C34.2927 25.4059 34.375 25.2072 34.375 25V21.2836L35.5291 20.1295L37.0743 38.671ZM12.9582 38.2805L15.7755 35.4639L16.8802 36.5686L14.5926 38.8562L12.9257 38.6709L12.9582 38.2805ZM34.4594 16.7792C34.9132 17.0916 35.2296 17.5664 35.3433 18.1054L27.9289 25.52L26.8237 24.4148L34.4594 16.7792ZM26.8239 28.8345L23.5093 25.5199L24.6141 24.4151L25.1627 24.9637L25.1663 24.9677L27.3763 27.1777L27.3803 27.1813L27.9288 27.7298L26.8239 28.8345ZM32.8125 22.8461V24.2188H31.4398L32.8125 22.8461ZM25.7188 23.31L25.1666 22.7577C25.02 22.6113 24.8213 22.529 24.6141 22.529C24.407 22.529 24.2082 22.6113 24.0617 22.7577L22.6007 24.2188H17.1875V21.0938H27.935L25.7188 23.31ZM22.9567 27.1772L25.1665 29.387L23.5093 31.0442L21.2995 28.8345L22.9567 27.1772ZM19.4169 28.9062C19.4333 29.0879 19.5131 29.2581 19.6423 29.3869L22.9568 32.7015C23.1094 32.854 23.3093 32.9303 23.5093 32.9303C23.7093 32.9303 23.9092 32.854 24.0617 32.7015L26.2713 30.4919C26.4238 30.6443 26.6237 30.7206 26.8237 30.7206C27.0237 30.7206 27.2236 30.6443 27.3761 30.4918L28.9618 28.9062H33.5937V33.5938H22.7443L18.5375 29.3869C18.3909 29.2405 18.1922 29.1582 17.985 29.1582C17.7779 29.1582 17.5792 29.2405 17.4326 29.3869L16.4062 30.4132V28.9062H19.4169ZM18.5423 36.0209L18.5378 36.0159C18.5362 36.0144 18.5344 36.013 18.5328 36.0114L15.7752 33.2538L17.9849 31.0441L21.2994 34.3586L19.0897 36.5684L18.5423 36.0209ZM18.5189 10.2673L17.4841 4.05898C17.4447 3.82256 17.5083 3.5916 17.6633 3.40869C17.8182 3.22578 18.0356 3.125 18.2754 3.125H31.7246C31.9643 3.125 32.1817 3.22568 32.3367 3.40859C32.4917 3.5915 32.5553 3.82246 32.5158 4.05889L31.481 10.2672C31.4503 10.4547 31.3538 10.6252 31.2088 10.748C31.0638 10.8708 30.8798 10.938 30.6898 10.9374H19.31C19.12 10.938 18.9361 10.8708 18.7911 10.748C18.6461 10.6252 18.5496 10.4548 18.5189 10.2673ZM21.875 12.5H28.125V14.8438H21.875V12.5ZM14.6183 18.36C14.7098 17.2644 15.6427 16.4063 16.7422 16.4063H32.6224L29.4974 19.5313H16.4062C16.199 19.5313 16.0003 19.6136 15.8538 19.7601C15.7073 19.9066 15.625 20.1053 15.625 20.3125V25C15.625 25.2072 15.7073 25.4059 15.8538 25.5524C16.0003 25.6989 16.199 25.7813 16.4062 25.7813H21.6688C21.7073 25.8907 21.7698 25.9902 21.8518 26.0724L20.5804 27.3438H15.625C15.4178 27.3438 15.2191 27.4261 15.0725 27.5726C14.926 27.7191 14.8437 27.9178 14.8437 28.125V31.9757L14.1179 32.7014C13.9715 32.8479 13.8892 33.0466 13.8892 33.2538C13.8892 33.461 13.9715 33.6597 14.1179 33.8062L14.6705 34.3588L13.1591 35.87L14.6183 18.36ZM38.6586 45.5101C38.5891 45.8931 38.3873 46.2396 38.0884 46.4891C37.7895 46.7386 37.4124 46.8751 37.0231 46.875H12.9768C12.5875 46.8751 12.2105 46.7386 11.9116 46.4891C11.6127 46.2396 11.4109 45.8931 11.3414 45.5101L10.3556 40.0887C10.3524 40.0731 10.3531 40.057 10.3575 40.0418C10.362 40.0265 10.3702 40.0126 10.3813 40.0013C10.3918 39.9894 10.4051 39.9803 10.4199 39.9748C10.4348 39.9692 10.4508 39.9675 10.4665 39.9697L15.313 40.5083C15.7884 40.5617 16.2316 40.7747 16.5703 41.1126C17.2635 41.8057 18.1849 42.1874 19.1652 42.1874H30.8347C31.815 42.1874 32.7366 41.8057 33.4297 41.1126C33.7683 40.7747 34.2116 40.5616 34.6871 40.5083L39.5335 39.9697C39.5492 39.9675 39.5652 39.9693 39.58 39.9748C39.5949 39.9803 39.6082 39.9894 39.6186 40.0013C39.6297 40.0126 39.6379 40.0265 39.6424 40.0418C39.6468 40.057 39.6475 40.0731 39.6443 40.0887L38.6586 45.5101Z" fill="#252C32"/>
</g>
</g>
</svg>
