<svg width="50" height="50" viewBox="0 0 50 50" fill="none" xmlns="http://www.w3.org/2000/svg">
<g id="Frame">
<g id="Group">
<path id="Vector" d="M47.1456 18.5985L46.0938 18.3354V17.895C46.0938 17.3301 45.7773 16.8376 45.3125 16.5855V15.002C45.3125 13.6428 44.5573 12.4208 43.3416 11.813L41.7557 11.02C41.3697 10.8272 40.9004 10.9834 40.7075 11.3694C40.6149 11.5547 40.5996 11.7693 40.6651 11.9658C40.7306 12.1624 40.8715 12.3249 41.0568 12.4176L42.6428 13.2105C43.3257 13.552 43.75 14.2384 43.75 15.002V16.4062H42.2077C41.781 16.4062 41.3742 16.5897 41.0917 16.9097C40.952 17.0679 40.8475 17.2541 40.7852 17.4558C40.7229 17.6575 40.7042 17.8702 40.7304 18.0797L41.3348 22.9146C41.4276 23.658 42.0628 24.2187 42.812 24.2187H43.75V42.9687C43.75 43.1776 43.6687 43.3743 43.5229 43.5207C43.4502 43.5936 43.3638 43.6514 43.2687 43.6907C43.1736 43.7301 43.0717 43.7502 42.9688 43.75C42.538 43.75 42.1875 43.3995 42.1875 42.9688V34.79C42.1875 33.6996 41.3004 32.8125 40.21 32.8125H39.8438V6.25H40.625C40.8322 6.25 41.0309 6.16769 41.1774 6.02118C41.3239 5.87466 41.4063 5.67595 41.4063 5.46875V2.34375C41.4063 2.13655 41.3239 1.93784 41.1774 1.79132C41.0309 1.64481 40.8322 1.5625 40.625 1.5625H9.375C9.1678 1.5625 8.96909 1.64481 8.82258 1.79132C8.67606 1.93784 8.59375 2.13655 8.59375 2.34375V5.46875C8.59375 5.67595 8.67606 5.87466 8.82258 6.02118C8.96909 6.16769 9.1678 6.25 9.375 6.25H10.1563V32.8125H9.79004C8.69961 32.8125 7.8125 33.6996 7.8125 34.79V42.9688C7.8125 43.3995 7.46201 43.75 7.03125 43.75C6.9288 43.7503 6.8273 43.7304 6.73257 43.6914C6.63783 43.6524 6.55173 43.5951 6.4792 43.5228C6.40633 43.4501 6.34857 43.3637 6.30923 43.2687C6.26989 43.1736 6.24976 43.0716 6.25 42.9688V24.2188H7.18789C7.93711 24.2188 8.57227 23.6581 8.66514 22.9146L9.26953 18.0797C9.29569 17.8702 9.277 17.6576 9.21472 17.4559C9.15244 17.2542 9.04799 17.0681 8.9083 16.9098C8.7686 16.7516 8.59685 16.6248 8.40445 16.538C8.21204 16.4512 8.00337 16.4063 7.79229 16.4062H6.25V15.002C6.25 14.2384 6.67432 13.552 7.35723 13.2104L8.94317 12.4175C9.12849 12.3248 9.26942 12.1623 9.33494 11.9657C9.40046 11.7692 9.3852 11.5546 9.29253 11.3693C9.19986 11.184 9.03736 11.043 8.84079 10.9775C8.64422 10.912 8.42967 10.9273 8.24434 11.0199L6.6584 11.8129C5.44268 12.4208 4.6875 13.6428 4.6875 15.002V16.5855C4.22266 16.8376 3.90625 17.3301 3.90625 17.895V18.3354L2.85528 18.5983C2.4858 18.6899 2.15767 18.9026 1.92332 19.2025C1.68897 19.5025 1.56193 19.8723 1.5625 20.2529V21.7324C1.5625 22.6726 2.32735 23.4375 3.26758 23.4375H4.08545C4.22374 23.6921 4.43286 23.9013 4.6875 24.0396V42.9688C4.6875 43.594 4.93067 44.1824 5.37432 44.6276C5.81748 45.0692 6.40606 45.3125 7.03125 45.3125C8.32354 45.3125 9.375 44.261 9.375 42.9688V34.79C9.37513 34.68 9.4189 34.5745 9.49671 34.4967C9.57451 34.4189 9.68001 34.3751 9.79004 34.375H10.1563V47.6562C10.1563 47.8634 10.2386 48.0622 10.3851 48.2087C10.5316 48.3552 10.7303 48.4375 10.9375 48.4375H39.0625C39.2697 48.4375 39.4684 48.3552 39.6149 48.2087C39.7614 48.0622 39.8438 47.8634 39.8438 47.6562V34.375H40.21C40.32 34.3751 40.4255 34.4189 40.5033 34.4967C40.5811 34.5745 40.6249 34.68 40.625 34.79V42.9688C40.625 44.261 41.6765 45.3125 42.9688 45.3125C43.5939 45.3125 44.1825 45.0692 44.6276 44.6257C45.0693 44.1824 45.3125 43.594 45.3125 42.9688V24.0396C45.5671 23.9012 45.7762 23.6921 45.9146 23.4375H46.7324C47.6727 23.4375 48.4375 22.6726 48.4375 21.7324V20.2529C48.4381 19.8724 48.3112 19.5027 48.077 19.2028C47.8428 18.9029 47.5149 18.6902 47.1456 18.5985ZM3.90625 21.875H3.26758C3.18897 21.875 3.125 21.811 3.125 21.7324V20.2529C3.125 20.1872 3.16924 20.1304 3.2335 20.1144L3.90625 19.9461V21.875ZM5.46875 17.9688H7.70879L7.12276 22.6562H5.46875V17.9688ZM13.2813 46.875H11.7188V6.25H13.2813V46.875ZM35.1563 46.875H14.8438V45.3125H35.1563V46.875ZM35.1563 43.75H14.8438V26.5625H35.1563V43.75ZM35.1563 25H14.8438V17.1875H35.1563V25ZM35.1563 15.625H14.8438V6.25H35.1563V15.625ZM38.2813 46.875H36.7188V6.25H38.2813V46.875ZM10.1563 4.6875V3.125H39.8438V4.6875H10.1563ZM44.5313 22.6562H42.8772L42.2911 17.9688H44.5313V22.6562ZM46.875 21.7324C46.875 21.811 46.811 21.875 46.7324 21.875H46.0938V19.9461L46.7674 20.1146C46.7982 20.1224 46.8256 20.1402 46.8451 20.1653C46.8646 20.1904 46.8751 20.2213 46.875 20.253V21.7324Z" fill="#252C32"/>
<path id="Vector_2" d="M26.5625 23.4375H32.8125C33.0197 23.4375 33.2184 23.3552 33.3649 23.2087C33.5114 23.0622 33.5938 22.8635 33.5938 22.6562V19.5312C33.5938 19.324 33.5114 19.1253 33.3649 18.9788C33.2184 18.8323 33.0197 18.75 32.8125 18.75H26.5625C26.3553 18.75 26.1566 18.8323 26.0101 18.9788C25.8636 19.1253 25.7812 19.324 25.7812 19.5312V22.6562C25.7812 22.8635 25.8636 23.0622 26.0101 23.2087C26.1566 23.3552 26.3553 23.4375 26.5625 23.4375ZM27.3438 20.3125H32.0312V21.875H27.3438V20.3125ZM17.1875 23.4375H23.4375C23.6447 23.4375 23.8434 23.3552 23.9899 23.2087C24.1364 23.0622 24.2188 22.8635 24.2188 22.6562V19.5312C24.2188 19.324 24.1364 19.1253 23.9899 18.9788C23.8434 18.8323 23.6447 18.75 23.4375 18.75H17.1875C16.9803 18.75 16.7816 18.8323 16.6351 18.9788C16.4886 19.1253 16.4062 19.324 16.4062 19.5312V22.6562C16.4062 22.8635 16.4886 23.0622 16.6351 23.2087C16.7816 23.3552 16.9803 23.4375 17.1875 23.4375ZM17.9688 20.3125H22.6562V21.875H17.9688V20.3125ZM20.3125 39.8438C20.6715 39.8438 21.023 39.7809 21.3559 39.6627C22.2159 40.7252 23.5296 41.4062 25 41.4062C26.4704 41.4062 27.7841 40.7252 28.6441 39.6627C28.979 39.7822 29.3319 39.8434 29.6875 39.8438C31.4106 39.8438 32.8125 38.4419 32.8125 36.7188C32.8125 35.2025 30.6937 32.7642 30.269 32.2908C30.1958 32.2091 30.1062 32.1438 30.006 32.099C29.9058 32.0543 29.7973 32.0312 29.6876 32.0312C29.5778 32.0312 29.4694 32.0543 29.3692 32.099C29.269 32.1437 29.1793 32.209 29.1061 32.2907C29.0854 32.3139 28.7663 32.6709 28.363 33.1849C27.2699 31.2952 25.8594 29.5105 25.6096 29.1989C25.5364 29.1076 25.4436 29.0338 25.3381 28.9832C25.2326 28.9325 25.117 28.9062 25 28.9062C24.883 28.9062 24.7674 28.9325 24.6619 28.9832C24.5564 29.0338 24.4636 29.1076 24.3904 29.1989C24.1407 29.5105 22.7302 31.295 21.6371 33.1847C21.2337 32.6707 20.9146 32.3139 20.8939 32.2907C20.8207 32.2091 20.731 32.1438 20.6308 32.0991C20.5306 32.0544 20.4221 32.0313 20.3124 32.0313C20.2027 32.0313 20.0942 32.0544 19.994 32.0991C19.8939 32.1438 19.8042 32.2092 19.731 32.2908C19.706 32.3187 19.11 32.9849 18.5063 33.8243C17.6189 35.0584 17.1875 36.0052 17.1875 36.7188C17.1875 38.4419 18.5894 39.8438 20.3125 39.8438ZM29.6917 34.0238C30.6677 35.2378 31.25 36.3166 31.25 36.7188C31.25 37.5803 30.549 38.2812 29.6875 38.2812C29.5993 38.2812 29.5122 38.273 29.4265 38.2586C29.5994 37.7636 29.6876 37.2431 29.6875 36.7188C29.6875 36.1554 29.4792 35.4627 29.1567 34.7276C29.3293 34.4887 29.5077 34.254 29.6917 34.0238ZM25.0001 30.9645C26.3999 32.8335 28.125 35.5284 28.125 36.7188C28.125 38.4419 26.7231 39.8438 25 39.8438C23.2769 39.8438 21.875 38.4419 21.875 36.7188C21.875 35.5298 23.6003 32.8343 25.0001 30.9645ZM20.3083 34.0238C20.4923 34.254 20.6707 34.4887 20.8433 34.7276C20.5208 35.4627 20.3125 36.1554 20.3125 36.7188C20.3125 37.2581 20.4052 37.7759 20.5735 38.2586C20.4878 38.273 20.4007 38.2812 20.3125 38.2812C19.451 38.2812 18.75 37.5803 18.75 36.7188C18.75 36.3166 19.3324 35.2377 20.3083 34.0238Z" fill="#252C32"/>
</g>
</g>
</svg>
