<svg width="50" height="50" viewBox="0 0 50 50" fill="none" xmlns="http://www.w3.org/2000/svg">
<g id="Frame">
<g id="Group">
<path id="Vector" d="M34.375 37.5C32.2211 37.5 30.4688 39.2523 30.4688 41.4062C30.4688 43.5602 32.2211 45.3125 34.375 45.3125C36.5289 45.3125 38.2812 43.5602 38.2812 41.4062C38.2812 39.2523 36.5289 37.5 34.375 37.5ZM34.375 43.75C33.0827 43.75 32.0312 42.6985 32.0312 41.4062C32.0312 40.114 33.0827 39.0625 34.375 39.0625C35.6673 39.0625 36.7188 40.114 36.7188 41.4062C36.7188 42.6985 35.6673 43.75 34.375 43.75ZM31.25 25H18.75C16.5961 25 14.8438 26.7523 14.8438 28.9062C14.8438 31.0602 16.5961 32.8125 18.75 32.8125H31.25C33.4039 32.8125 35.1562 31.0602 35.1562 28.9062C35.1562 26.7523 33.4039 25 31.25 25ZM31.25 31.25H18.75C17.4577 31.25 16.4062 30.1985 16.4062 28.9062C16.4062 27.614 17.4577 26.5625 18.75 26.5625H31.25C32.5423 26.5625 33.5938 27.614 33.5938 28.9062C33.5938 30.1985 32.5423 31.25 31.25 31.25Z" fill="black"/>
<path id="Vector_2" d="M43.75 15.625V18.75C43.75 18.9572 43.8323 19.1559 43.9788 19.3024C44.1253 19.4489 44.3241 19.5312 44.5312 19.5312H47.6562C47.8634 19.5312 48.0622 19.4489 48.2087 19.3024C48.3552 19.1559 48.4375 18.9572 48.4375 18.75V15.625C48.4375 14.6065 47.7843 13.7382 46.875 13.4156V4.29688C46.875 2.78916 45.6483 1.5625 44.1406 1.5625C43.4105 1.5625 42.7239 1.84697 42.2073 2.36367C41.6907 2.88027 41.4062 3.5668 41.4062 4.29688V9.375C41.4062 9.80576 41.0558 10.1562 40.625 10.1562C40.5226 10.1566 40.4211 10.1367 40.3263 10.0977C40.2316 10.0587 40.1455 10.0014 40.0729 9.9291C40.0001 9.85642 39.9423 9.77005 39.903 9.67495C39.8637 9.57985 39.8435 9.47791 39.8438 9.375V4.29688C39.8438 2.78916 38.6171 1.5625 37.1094 1.5625H6.64062C5.13291 1.5625 3.90625 2.78916 3.90625 4.29688C3.90625 5.02695 4.19072 5.71348 4.70732 6.23018C5.22393 6.74678 5.91055 7.03125 6.64062 7.03125H15.7197C15.9017 7.03146 16.0762 7.10385 16.2049 7.23256C16.3336 7.36126 16.406 7.53576 16.4062 7.71777V7.86914C13.7597 8.24951 11.7188 10.531 11.7188 13.2812C11.7188 14.7696 12.3172 16.1204 13.2853 17.1075C13.2826 17.1339 13.2812 17.1605 13.2812 17.1875V20.3403C11.0808 20.4952 8.97915 21.3146 7.25449 22.6899L5.56357 20.999C5.1209 20.5562 4.53232 20.3125 3.90625 20.3125C3.28018 20.3125 2.6916 20.5563 2.24902 20.9989C1.80635 21.4416 1.5625 22.0302 1.5625 22.6562C1.5625 23.2823 1.80635 23.8709 2.24902 24.3136L4.28408 26.3486C3.52196 27.8701 3.1251 29.5483 3.125 31.25C3.125 36.214 6.48135 40.5354 11.207 41.8079L10.1688 47.5165C10.1483 47.6291 10.1528 47.7448 10.182 47.8555C10.2111 47.9662 10.2642 48.0691 10.3376 48.1569C10.4109 48.2448 10.5026 48.3155 10.6063 48.364C10.71 48.4124 10.8231 48.4376 10.9375 48.4375H14.0625C14.2229 48.4375 14.3794 48.3881 14.5108 48.2961C14.6421 48.2041 14.742 48.0739 14.7968 47.9231L16.8822 42.1875H27.3882C27.7782 45.698 30.7621 48.4375 34.375 48.4375C38.2521 48.4375 41.4062 45.2833 41.4062 41.4062C41.4062 41.1816 41.3945 40.9598 41.3738 40.7404C42.2142 40.2594 42.9869 39.6687 43.6716 38.9841C45.7374 36.9183 46.875 34.1716 46.875 31.25C46.875 29.5445 46.4748 27.8629 45.7155 26.349L47.751 24.3136C47.9693 24.0964 48.1424 23.8382 48.2602 23.5537C48.3781 23.2692 48.4383 22.9642 48.4375 22.6562C48.4383 22.3484 48.3781 22.0433 48.2603 21.7589C48.1425 21.4744 47.9694 21.2162 47.7511 20.999C47.3084 20.5562 46.7198 20.3125 46.0938 20.3125C45.4677 20.3125 44.8791 20.5563 44.4365 20.9989L42.7449 22.6904C41.5658 21.7495 40.2182 21.0706 38.7709 20.685C39.4714 19.6532 39.8452 18.4346 39.8438 17.1875C39.8438 13.7412 37.04 10.9375 33.5938 10.9375C30.1475 10.9375 27.3438 13.7412 27.3438 17.1875C27.3429 18.2852 27.633 19.3635 28.1846 20.3125H21.0938V17.1875C21.0938 17.1606 21.092 17.1342 21.0894 17.108C22.0576 16.1209 22.6562 14.7699 22.6562 13.2812C22.6562 10.5311 20.6153 8.24951 17.9688 7.86924V7.71787C17.9688 6.47764 16.9599 5.46875 15.7197 5.46875H6.64062C6.32783 5.46875 6.03369 5.34678 5.81221 5.12529C5.59072 4.90381 5.46875 4.60957 5.46875 4.29688C5.46875 3.65068 5.99443 3.125 6.64062 3.125H37.1094C37.7556 3.125 38.2812 3.65068 38.2812 4.29688V9.375C38.2812 10.0002 38.5245 10.5888 38.9681 11.0339C39.4113 11.4756 39.9997 11.7188 40.625 11.7188C41.9174 11.7188 42.9688 10.6673 42.9688 9.375V4.29688C42.9688 3.98418 43.0907 3.68994 43.3122 3.46855C43.4207 3.35934 43.5498 3.27274 43.692 3.21377C43.8342 3.15479 43.9867 3.12462 44.1406 3.125C44.7868 3.125 45.3125 3.65068 45.3125 4.29688V13.4156C44.4032 13.7382 43.75 14.6065 43.75 15.625ZM3.125 22.6562C3.125 22.4476 3.20625 22.2514 3.35391 22.1038C3.50137 21.9563 3.69756 21.875 3.90625 21.875C4.11494 21.875 4.31113 21.9562 4.45869 22.1039L9.43057 27.0756C9.73516 27.3803 9.73516 27.8759 9.43057 28.1805C9.12598 28.4851 8.63037 28.4851 8.32568 28.1805L3.35381 23.2086C3.28103 23.1362 3.22333 23.0502 3.18406 22.9553C3.14478 22.8605 3.12471 22.7589 3.125 22.6562ZM13.5152 46.875H11.8735L12.7405 42.1082C13.1773 42.1609 13.6195 42.1875 14.0624 42.1875H15.2195L13.5152 46.875ZM34.375 46.875C31.3596 46.875 28.9062 44.4218 28.9062 41.4062C28.9062 38.3907 31.3596 35.9375 34.375 35.9375C37.3904 35.9375 39.8438 38.3907 39.8438 41.4062C39.8438 44.4218 37.3904 46.875 34.375 46.875ZM45.5414 22.1038C45.689 21.9563 45.8852 21.875 46.0938 21.875C46.3023 21.875 46.4986 21.9562 46.6462 22.1039C46.7938 22.2515 46.875 22.4477 46.875 22.6562C46.875 22.8648 46.7938 23.0611 46.6462 23.2086L41.6743 28.1805C41.3696 28.4853 40.874 28.485 40.5695 28.1806C40.2649 27.8759 40.2649 27.3803 40.5695 27.0757L45.5414 22.1038ZM39.4646 25.9708C38.5509 26.8846 38.5509 28.3715 39.4646 29.2854C39.9215 29.7423 40.5217 29.9707 41.1219 29.9707C41.7221 29.9707 42.3223 29.7423 42.7791 29.2854L44.5404 27.524C45.0494 28.7003 45.3122 29.9683 45.3125 31.25C45.3125 33.7543 44.3374 36.1085 42.5667 37.8792C42.0979 38.3476 41.5809 38.7651 41.0241 39.1246C40.0743 36.3645 37.4535 34.375 34.375 34.375C30.7621 34.375 27.7782 37.1145 27.3882 40.625H14.0625C13.4535 40.625 12.8467 40.5665 12.2577 40.451C7.87129 39.597 4.6875 35.7273 4.6875 31.25C4.68772 29.9683 4.95034 28.7001 5.45918 27.5237L7.2209 29.2854C7.67783 29.7424 8.27793 29.9708 8.87813 29.9708C9.47832 29.9708 10.0785 29.7423 10.5354 29.2854C11.4252 28.3954 11.4459 26.9637 10.6026 26.0452C11.4301 25.4929 12.3782 25.1475 13.3671 25.0382C13.573 25.0154 13.7615 24.9118 13.891 24.7501C14.0206 24.5884 14.0806 24.3818 14.0578 24.1759C14.0104 23.747 13.624 23.4373 13.1954 23.4853C11.8513 23.6338 10.5772 24.1285 9.48467 24.9201L8.36816 23.8037C9.99687 22.5554 11.9895 21.875 14.0625 21.875H29.4664C30.5683 22.8464 32.0129 23.4375 33.5938 23.4375C35.0974 23.4375 36.4785 22.9036 37.558 22.0156C39.0464 22.2736 40.4355 22.8852 41.6319 23.8035L39.4646 25.9708ZM29.7752 14.4738L30.9027 15.6014C30.7538 15.8525 30.641 16.1235 30.5677 16.4062H28.9727C29.0903 15.7095 29.3647 15.0488 29.7752 14.4738ZM38.2149 16.4062H36.6199C36.5466 16.1236 36.4338 15.8526 36.2849 15.6015L37.4124 14.4739C37.8229 15.0489 38.0973 15.7097 38.2149 16.4062ZM33.5938 15.625C34.4553 15.625 35.1562 16.326 35.1562 17.1875C35.1562 18.049 34.4553 18.75 33.5938 18.75C32.7322 18.75 32.0312 18.049 32.0312 17.1875C32.0312 16.326 32.7322 15.625 33.5938 15.625ZM32.0076 19.8785C32.2589 20.0275 32.5298 20.1403 32.8125 20.2137V21.8087C32.1158 21.6911 31.4551 21.4166 30.8801 21.0061L32.0076 19.8785ZM34.375 20.2136C34.6577 20.1403 34.9287 20.0275 35.1799 19.8784L36.3074 21.006C35.7324 21.4165 35.0717 21.691 34.375 21.8086V20.2136ZM37.4123 19.9012L36.2848 18.7736C36.4337 18.5225 36.5465 18.2515 36.6198 17.9688H38.2148C38.0972 18.6655 37.8228 19.3262 37.4123 19.9012ZM35.1799 14.4965C34.9286 14.3475 34.6577 14.2347 34.375 14.1613V12.5663C35.0717 12.6839 35.7324 12.9584 36.3074 13.3689L35.1799 14.4965ZM32.8125 14.1614C32.5298 14.2347 32.2588 14.3475 32.0076 14.4966L30.8801 13.369C31.4551 12.9585 32.1158 12.684 32.8125 12.5664V14.1614ZM30.5677 17.9688C30.641 18.2514 30.7538 18.5224 30.9027 18.7735L29.7752 19.9011C29.3647 19.3261 29.0902 18.6653 28.9726 17.9687H30.5677V17.9688ZM14.8438 20.3125V18.2213C15.5546 18.5599 16.3491 18.75 17.1875 18.75C18.0259 18.75 18.8204 18.5599 19.5312 18.2213V20.3125H14.8438ZM21.0151 12.5H20.3125C20.1053 12.5 19.9066 12.5823 19.7601 12.7288C19.6136 12.8753 19.5312 13.074 19.5312 13.2812C19.5312 13.4885 19.6136 13.6872 19.7601 13.8337C19.9066 13.9802 20.1053 14.0625 20.3125 14.0625H21.0151C20.7036 15.5908 19.4971 16.7974 17.9688 17.1089V16.4062C17.9688 16.199 17.8864 16.0003 17.7399 15.8538C17.5934 15.7073 17.3947 15.625 17.1875 15.625C16.9803 15.625 16.7816 15.7073 16.6351 15.8538C16.4886 16.0003 16.4062 16.199 16.4062 16.4062V17.1089C14.8779 16.7974 13.6713 15.5908 13.3599 14.0625H14.0625C14.2697 14.0625 14.4684 13.9802 14.6149 13.8337C14.7614 13.6872 14.8438 13.4885 14.8438 13.2812C14.8438 13.074 14.7614 12.8753 14.6149 12.7288C14.4684 12.5823 14.2697 12.5 14.0625 12.5H13.3599C13.6714 10.9717 14.8779 9.76514 16.4062 9.45361V10.1562C16.4062 10.3635 16.4886 10.5622 16.6351 10.7087C16.7816 10.8552 16.9803 10.9375 17.1875 10.9375C17.3947 10.9375 17.5934 10.8552 17.7399 10.7087C17.8864 10.5622 17.9688 10.3635 17.9688 10.1562V9.45361C19.4971 9.76514 20.7037 10.9717 21.0151 12.5ZM46.875 17.9688H45.3125V15.625C45.3125 15.1942 45.663 14.8438 46.0938 14.8438C46.5245 14.8438 46.875 15.1942 46.875 15.625V17.9688Z" fill="black"/>
<path id="Vector_3" d="M16.1774 11.1662C16.0309 11.0198 15.8322 10.9375 15.625 10.9375C15.4179 10.9375 15.2192 11.0198 15.0727 11.1662C15.0001 11.2388 14.9425 11.3249 14.9033 11.4197C14.864 11.5145 14.8438 11.6161 14.8438 11.7187C14.8438 11.8213 14.864 11.9229 14.9033 12.0177C14.9425 12.1125 15.0001 12.1986 15.0727 12.2711L16.6352 13.8336C16.7877 13.9862 16.9876 14.0624 17.1876 14.0624C17.3876 14.0624 17.5875 13.9862 17.74 13.8336C17.8126 13.7611 17.8702 13.675 17.9094 13.5802C17.9487 13.4854 17.9689 13.3838 17.9689 13.2812C17.9689 13.1786 17.9487 13.077 17.9094 12.9822C17.8702 12.8874 17.8126 12.8013 17.74 12.7287L16.1774 11.1662ZM7.8125 31.2499C7.8125 31.0176 7.82529 30.7837 7.85068 30.5546C7.87346 30.3487 7.8135 30.1421 7.68398 29.9804C7.55446 29.8187 7.366 29.715 7.16006 29.6922C6.73154 29.6445 6.34512 29.954 6.29766 30.3828C6.26591 30.6707 6.25 30.9602 6.25 31.2499C6.25 32.8036 6.70508 34.3045 7.56611 35.5908C7.63752 35.6976 7.7342 35.7852 7.84758 35.8456C7.96095 35.9061 8.08751 35.9377 8.21602 35.9375C8.3575 35.9374 8.4963 35.8988 8.61759 35.826C8.73888 35.7531 8.83811 35.6487 8.90469 35.5239C8.97128 35.399 9.00271 35.2585 8.99564 35.1171C8.98857 34.9758 8.94326 34.8391 8.86455 34.7215C8.17627 33.6934 7.8125 32.493 7.8125 31.2499Z" fill="black"/>
</g>
</g>
</svg>
